<?xml version="1.0" encoding="UTF-8" standalone="no"?>
<!-- Created with Inkscape (http://www.inkscape.org/) -->

<svg
   xmlns:dc="http://purl.org/dc/elements/1.1/"
   xmlns:cc="http://creativecommons.org/ns#"
   xmlns:rdf="http://www.w3.org/1999/02/22-rdf-syntax-ns#"
   xmlns:svg="http://www.w3.org/2000/svg"
   xmlns="http://www.w3.org/2000/svg"
   xmlns:sodipodi="http://sodipodi.sourceforge.net/DTD/sodipodi-0.dtd"
   xmlns:inkscape="http://www.inkscape.org/namespaces/inkscape"
   width="120"
   height="120"
   viewBox="0 0 31.75 31.750001"
   version="1.1"
   id="svg8"
   inkscape:version="0.92.1 r15371"
   sodipodi:docname="upperB.svg">
  <defs
     id="defs2" />
  <sodipodi:namedview
     id="base"
     pagecolor="#ffffff"
     bordercolor="#666666"
     borderopacity="1.0"
     inkscape:pageopacity="0.0"
     inkscape:pageshadow="2"
     inkscape:zoom="0.25"
     inkscape:cx="7.8837292"
     inkscape:cy="62.039054"
     inkscape:document-units="mm"
     inkscape:current-layer="text1005"
     showgrid="false"
     units="px"
     inkscape:window-width="938"
     inkscape:window-height="1051"
     inkscape:window-x="0"
     inkscape:window-y="0"
     inkscape:window-maximized="0" />
  <metadata
     id="metadata5">
    <rdf:RDF>
      <cc:Work
         rdf:about="">
        <dc:format>image/svg+xml</dc:format>
        <dc:type
           rdf:resource="http://purl.org/dc/dcmitype/StillImage" />
        <dc:title></dc:title>
      </cc:Work>
    </rdf:RDF>
  </metadata>
  <g
     inkscape:label="Calque 1"
     inkscape:groupmode="layer"
     id="layer1"
     transform="translate(0,-265.24998)">
    <g
       aria-label="a"
       style="font-style:normal;font-variant:normal;font-weight:normal;font-stretch:normal;font-size:25.39999962px;line-height:1.25;font-family:Kabel;-inkscape-font-specification:Kabel;letter-spacing:0px;word-spacing:0px;fill:#e77936;fill-opacity:1;stroke:#b95c1f;stroke-width:0.5291667;stroke-miterlimit:4;stroke-dasharray:none;stroke-opacity:1"
       id="text817"
       transform="translate(1.7053228,-3.6786133)">
      <g
         aria-label="bcdefghijklmnopqrstuvwxyz

ABCDEFGHIJKLMNOPQRSTUVWXYZ"
         style="font-style:normal;font-variant:normal;font-weight:normal;font-stretch:normal;font-size:25.39999962px;line-height:1.25;font-family:Kabel;-inkscape-font-specification:Kabel;letter-spacing:0px;word-spacing:0px;fill:#e77936;fill-opacity:1;stroke:#b95c1f;stroke-width:0.5291667;stroke-miterlimit:4;stroke-dasharray:none;stroke-opacity:1"
         id="text1005">
        <path
           inkscape:connector-curvature="0"
           d="m 15.044043,294.94714 -8.3281711,-0.0496 v -20.39565 h 6.0957501 q 3.75791,0 5.86631,0.96118 2.08359,0.96738 2.31304,4.01836 0.0248,0.22323 0.0248,0.42788 0,1.22163 -0.5085,2.1084 -0.607709,1.0666 -1.22163,1.55028 -0.63252,0.5085 -0.96118,0.65734 0.0744,0.0558 0.91157,0.5395 0.81235,0.50229 1.55029,1.44486 0.71314,0.9674 0.81236,2.38746 0.0248,0.30385 0.0248,0.60772 0,1.62471 -0.68213,2.82153 -0.84336,1.42006 -2.38745,2.15801 -1.5751,0.76274 -3.50986,0.76274 z m -1.928561,-8.43359 h -1.296049 v 4.26641 h 1.50069 q 1.5751,0 2.28203,-0.55812 0.63872,-0.5085 0.63872,-1.46967 0,-0.0806 0,-0.15503 -0.0248,-1.14101 -0.78755,-1.6247 -0.78755,-0.45889 -2.337841,-0.45889 z m -0.0496,-8.07393 h -1.246441 v 4.11138 h 1.296051 q 1.0666,0 1.85415,-0.60771 0.66352,-0.5333 0.66352,-1.42627 0,-0.12403 0,-0.24805 -0.105419,-1.12241 -0.762739,-1.47588 -0.68833,-0.35347 -1.804541,-0.35347 z"
           style="font-style:normal;font-variant:normal;font-weight:normal;font-stretch:normal;font-size:25.39999962px;line-height:1.25;font-family:Kabel;-inkscape-font-specification:Kabel;letter-spacing:0px;word-spacing:0px;fill:#e7bb36;fill-opacity:1;stroke:#b9931f;stroke-width:0.52916682;stroke-miterlimit:4;stroke-dasharray:none;stroke-opacity:1"
           id="path1063" />
      </g>
    </g>
  </g>
</svg>
